<?xml version="1.0" standalone="no"?>
<!DOCTYPE svg PUBLIC "-//W3C//DTD SVG 20010904//EN"
 "http://www.w3.org/TR/2001/REC-SVG-20010904/DTD/svg10.dtd">
<svg version="1.0" xmlns="http://www.w3.org/2000/svg"
 width="260.000000pt" height="260.000000pt" viewBox="0 0 260.000000 260.000000"
 preserveAspectRatio="xMidYMid meet">
<metadata>
Created by potrace 1.14, written by Peter Selinger 2001-2017
</metadata>
<g transform="translate(0.000000,260.000000) scale(0.100000,-0.100000)"
fill="#000000" stroke="none">
<path d="M285 2586 c-96 -30 -168 -83 -218 -159 -71 -106 -68 -53 -65 -1148
l3 -984 27 -58 c37 -79 78 -128 141 -170 106 -71 53 -68 1148 -65 l984 3 66
32 c80 40 159 120 197 200 l27 58 0 1005 0 1005 -32 66 c-40 80 -120 159 -200
197 l-58 27 -990 2 c-779 1 -999 -1 -1030 -11z m855 -1151 c85 -261 157 -475
160 -475 3 1 75 213 161 473 l155 472 157 3 c86 1 157 -1 157 -6 0 -8 -385
-1098 -427 -1209 l-16 -43 -187 0 -188 0 -11 28 c-24 62 -431 1215 -431 1223
0 5 71 9 158 9 l157 0 155 -475z"/>
</g>
</svg>
