<svg width="474" height="36" viewBox="0 0 474 36" fill="none" xmlns="http://www.w3.org/2000/svg">
<path d="M9.69032 8.48673C12.0443 8.48673 14.0023 9.12473 15.5643 10.4007C17.1483 11.6767 18.1383 13.4147 18.5343 15.6147H13.6173C13.4193 14.6467 12.9683 13.8877 12.2643 13.3377C11.5603 12.7657 10.6693 12.4797 9.59132 12.4797C8.35932 12.4797 7.32532 12.9417 6.48932 13.8657C5.67532 14.7677 5.26832 16.0987 5.26832 17.8587C5.26832 19.6187 5.67532 20.9607 6.48932 21.8847C7.32532 22.7867 8.35932 23.2377 9.59132 23.2377C10.6693 23.2377 11.5603 22.9627 12.2643 22.4127C12.9683 21.8407 13.4193 21.0707 13.6173 20.1027H18.5343C18.1383 22.3027 17.1483 24.0407 15.5643 25.3167C14.0023 26.5927 12.0443 27.2307 9.69032 27.2307C7.90832 27.2307 6.32432 26.8567 4.93832 26.1087C3.55232 25.3387 2.47432 24.2497 1.70432 22.8417C0.934317 21.4337 0.549316 19.7727 0.549316 17.8587C0.549316 15.9447 0.934317 14.2837 1.70432 12.8757C2.47432 11.4457 3.55232 10.3567 4.93832 9.60873C6.32432 8.86073 7.90832 8.48673 9.69032 8.48673Z" fill="white"/>
<path d="M30.2885 8.48673C32.0705 8.48673 33.6655 8.86073 35.0735 9.60873C36.5035 10.3567 37.6255 11.4457 38.4395 12.8757C39.2535 14.2837 39.6605 15.9447 39.6605 17.8587C39.6605 19.7727 39.2535 21.4337 38.4395 22.8417C37.6255 24.2497 36.5035 25.3387 35.0735 26.1087C33.6655 26.8567 32.0705 27.2307 30.2885 27.2307C28.5065 27.2307 26.9005 26.8567 25.4705 26.1087C24.0625 25.3387 22.9515 24.2497 22.1375 22.8417C21.3235 21.4337 20.9165 19.7727 20.9165 17.8587C20.9165 15.9447 21.3235 14.2837 22.1375 12.8757C22.9515 11.4457 24.0625 10.3567 25.4705 9.60873C26.9005 8.86073 28.5065 8.48673 30.2885 8.48673ZM30.2885 12.5127C28.9905 12.5127 27.8905 12.9747 26.9885 13.8987C26.0865 14.8007 25.6355 16.1207 25.6355 17.8587C25.6355 19.5967 26.0865 20.9277 26.9885 21.8517C27.8905 22.7537 28.9905 23.2047 30.2885 23.2047C31.5865 23.2047 32.6865 22.7537 33.5885 21.8517C34.4905 20.9277 34.9415 19.5967 34.9415 17.8587C34.9415 16.1207 34.4905 14.8007 33.5885 13.8987C32.6865 12.9747 31.5865 12.5127 30.2885 12.5127Z" fill="white"/>
<path d="M53.8389 8.45373C55.9509 8.45373 57.6339 9.14673 58.8879 10.5327C60.1419 11.9187 60.7689 13.8657 60.7689 16.3737V26.9997H56.1489V16.9017C56.1489 15.4497 55.7749 14.3277 55.0269 13.5357C54.2789 12.7217 53.2559 12.3147 51.9579 12.3147C50.6379 12.3147 49.5819 12.7437 48.7899 13.6017C47.9979 14.4597 47.6019 15.6917 47.6019 17.2977V26.9997H42.9489V8.71773H47.6019V12.3807C48.0859 11.1487 48.8779 10.1917 49.9779 9.50973C51.0999 8.80573 52.3869 8.45373 53.8389 8.45373Z" fill="white"/>
<path d="M74.631 23.0067V26.9997H72.189C70.143 26.9997 68.57 26.5047 67.47 25.5147C66.392 24.5247 65.853 22.8747 65.853 20.5647V12.6447H63.312V8.71773H65.853V4.19673H70.506V8.71773H74.598V12.6447H70.506V20.6307C70.506 21.5107 70.682 22.1267 71.034 22.4787C71.386 22.8307 71.98 23.0067 72.816 23.0067H74.631Z" fill="white"/>
<path d="M85.1402 8.48673C86.6802 8.48673 88.0002 8.84973 89.1002 9.57574C90.2002 10.3017 90.9812 11.2807 91.4432 12.5127V8.71773H96.0632V26.9997H91.4432V23.1717C90.9812 24.4037 90.2002 25.3937 89.1002 26.1417C88.0002 26.8677 86.6802 27.2307 85.1402 27.2307C83.6002 27.2307 82.2142 26.8567 80.9822 26.1087C79.7502 25.3607 78.7822 24.2827 78.0782 22.8747C77.3962 21.4447 77.0552 19.7727 77.0552 17.8587C77.0552 15.9447 77.3962 14.2837 78.0782 12.8757C78.7822 11.4457 79.7502 10.3567 80.9822 9.60873C82.2142 8.86073 83.6002 8.48673 85.1402 8.48673ZM86.5922 12.5457C85.1402 12.5457 83.9742 13.0187 83.0942 13.9647C82.2142 14.9107 81.7742 16.2087 81.7742 17.8587C81.7742 19.5087 82.2142 20.8067 83.0942 21.7527C83.9742 22.6767 85.1402 23.1387 86.5922 23.1387C88.0002 23.1387 89.1552 22.6657 90.0572 21.7197C90.9812 20.7517 91.4432 19.4647 91.4432 17.8587C91.4432 16.2307 90.9812 14.9437 90.0572 13.9977C89.1552 13.0297 88.0002 12.5457 86.5922 12.5457Z" fill="white"/>
<path d="M108.497 8.48673C110.851 8.48673 112.809 9.12473 114.371 10.4007C115.955 11.6767 116.945 13.4147 117.341 15.6147H112.424C112.226 14.6467 111.775 13.8877 111.071 13.3377C110.367 12.7657 109.476 12.4797 108.398 12.4797C107.166 12.4797 106.132 12.9417 105.296 13.8657C104.482 14.7677 104.075 16.0987 104.075 17.8587C104.075 19.6187 104.482 20.9607 105.296 21.8847C106.132 22.7867 107.166 23.2377 108.398 23.2377C109.476 23.2377 110.367 22.9627 111.071 22.4127C111.775 21.8407 112.226 21.0707 112.424 20.1027H117.341C116.945 22.3027 115.955 24.0407 114.371 25.3167C112.809 26.5927 110.851 27.2307 108.497 27.2307C106.715 27.2307 105.131 26.8567 103.745 26.1087C102.359 25.3387 101.281 24.2497 100.511 22.8417C99.741 21.4337 99.356 19.7727 99.356 17.8587C99.356 15.9447 99.741 14.2837 100.511 12.8757C101.281 11.4457 102.359 10.3567 103.745 9.60873C105.131 8.86073 106.715 8.48673 108.497 8.48673Z" fill="white"/>
<path d="M130.415 23.0067V26.9997H127.973C125.927 26.9997 124.354 26.5047 123.254 25.5147C122.176 24.5247 121.637 22.8747 121.637 20.5647V12.6447H119.096V8.71773H121.637V4.19673H126.29V8.71773H130.382V12.6447H126.29V20.6307C126.29 21.5107 126.466 22.1267 126.818 22.4787C127.17 22.8307 127.764 23.0067 128.6 23.0067H130.415Z" fill="white"/>
<path d="M153.926 0.302734C157.424 0.302734 160.438 0.907735 162.968 2.11773C165.52 3.30573 167.467 5.04373 168.809 7.33173C170.173 9.59773 170.855 12.3147 170.855 15.4827C170.855 17.6607 170.415 19.6517 169.535 21.4557C168.677 23.2597 167.522 24.6787 166.07 25.7127C164.618 26.7467 163.056 27.2637 161.384 27.2637C159.91 27.2637 158.711 26.9227 157.787 26.2407C156.885 25.5587 156.368 24.4917 156.236 23.0397C155.488 24.4037 154.553 25.4487 153.431 26.1747C152.331 26.9007 150.989 27.2637 149.405 27.2637C148.041 27.2637 146.831 26.9447 145.775 26.3067C144.741 25.6467 143.927 24.7337 143.333 23.5677C142.761 22.3797 142.475 21.0157 142.475 19.4757C142.475 18.9917 142.486 18.6287 142.508 18.3867C142.64 16.4947 143.168 14.8007 144.092 13.3047C145.038 11.7867 146.27 10.6097 147.788 9.77374C149.328 8.91573 151.022 8.48673 152.87 8.48673C155.268 8.48673 157.171 9.13573 158.579 10.4337C160.009 11.7097 160.724 13.4477 160.724 15.6477C160.724 16.1097 160.691 16.5937 160.625 17.0997L160.097 20.6637C160.053 21.0597 160.031 21.3237 160.031 21.4557C160.031 22.0937 160.163 22.5447 160.427 22.8087C160.713 23.0727 161.142 23.2047 161.714 23.2047C162.484 23.2047 163.199 22.9187 163.859 22.3467C164.541 21.7527 165.091 20.8947 165.509 19.7727C165.927 18.6287 166.136 17.2537 166.136 15.6477C166.136 13.3377 165.641 11.3137 164.651 9.57574C163.661 7.83773 162.198 6.49573 160.262 5.54973C158.348 4.58173 156.005 4.09773 153.233 4.09773C149.977 4.09773 147.172 4.76874 144.818 6.11073C142.486 7.45273 140.715 9.28973 139.505 11.6217C138.295 13.9537 137.69 16.5607 137.69 19.4427C137.69 23.4467 138.867 26.5377 141.221 28.7157C143.597 30.9157 147.051 32.0157 151.583 32.0157L150.725 35.8107C146.985 35.7667 143.806 35.0957 141.188 33.7977C138.57 32.4997 136.579 30.6297 135.215 28.1877C133.851 25.7677 133.169 22.8527 133.169 19.4427C133.169 15.6367 134.082 12.2927 135.908 9.41073C137.734 6.50673 140.22 4.26273 143.366 2.67873C146.534 1.09473 150.054 0.302734 153.926 0.302734ZM156.203 16.8027C156.203 15.4167 155.829 14.3607 155.081 13.6347C154.333 12.8867 153.332 12.5127 152.078 12.5127C151.154 12.5127 150.296 12.7657 149.504 13.2717C148.734 13.7557 148.118 14.4707 147.656 15.4167C147.194 16.3627 146.963 17.4847 146.963 18.7827C146.963 20.1907 147.337 21.2797 148.085 22.0497C148.855 22.8197 149.823 23.2047 150.989 23.2047C151.891 23.2047 152.738 22.9627 153.53 22.4787C154.322 21.9727 154.96 21.2467 155.444 20.3007C155.95 19.3327 156.203 18.1667 156.203 16.8027Z" fill="white"/>
<path d="M182 22.3467L186.62 8.71773H191.57L184.805 26.9997H179.129L172.364 8.71773H177.347L182 22.3467Z" fill="white"/>
<path d="M211.349 17.1657C211.349 17.6277 211.294 18.1557 211.184 18.7497H197.786C197.852 20.3777 198.292 21.5767 199.106 22.3467C199.92 23.1167 200.932 23.5017 202.142 23.5017C203.22 23.5017 204.111 23.2377 204.815 22.7097C205.541 22.1817 206.003 21.4667 206.201 20.5647H211.118C210.876 21.8407 210.359 22.9847 209.567 23.9967C208.775 25.0087 207.752 25.8007 206.498 26.3727C205.266 26.9447 203.891 27.2307 202.373 27.2307C200.591 27.2307 199.007 26.8567 197.621 26.1087C196.235 25.3387 195.157 24.2497 194.387 22.8417C193.617 21.4337 193.232 19.7727 193.232 17.8587C193.232 15.9447 193.617 14.2837 194.387 12.8757C195.157 11.4457 196.235 10.3567 197.621 9.60873C199.007 8.86073 200.591 8.48673 202.373 8.48673C204.177 8.48673 205.75 8.86073 207.092 9.60873C208.456 10.3567 209.501 11.3907 210.227 12.7107C210.975 14.0087 211.349 15.4937 211.349 17.1657ZM206.663 16.7037C206.729 15.2077 206.333 14.0747 205.475 13.3047C204.639 12.5347 203.605 12.1497 202.373 12.1497C201.119 12.1497 200.063 12.5347 199.205 13.3047C198.347 14.0747 197.874 15.2077 197.786 16.7037H206.663Z" fill="white"/>
<path d="M225.542 8.45373C227.654 8.45373 229.337 9.14673 230.591 10.5327C231.845 11.9187 232.472 13.8657 232.472 16.3737V26.9997H227.852V16.9017C227.852 15.4497 227.478 14.3277 226.73 13.5357C225.982 12.7217 224.959 12.3147 223.661 12.3147C222.341 12.3147 221.285 12.7437 220.493 13.6017C219.701 14.4597 219.305 15.6917 219.305 17.2977V26.9997H214.652V8.71773H219.305V12.3807C219.789 11.1487 220.581 10.1917 221.681 9.50973C222.803 8.80573 224.09 8.45373 225.542 8.45373Z" fill="white"/>
<path d="M246.334 23.0067V26.9997H243.892C241.846 26.9997 240.273 26.5047 239.173 25.5147C238.095 24.5247 237.556 22.8747 237.556 20.5647V12.6447H235.015V8.71773H237.556V4.19673H242.209V8.71773H246.301V12.6447H242.209V20.6307C242.209 21.5107 242.385 22.1267 242.737 22.4787C243.089 22.8307 243.683 23.0067 244.519 23.0067H246.334Z" fill="white"/>
<path d="M267.172 8.71773V26.9997H262.519V23.3037C262.035 24.5357 261.232 25.5037 260.11 26.2077C259.01 26.8897 257.734 27.2307 256.282 27.2307C254.17 27.2307 252.487 26.5377 251.233 25.1517C249.979 23.7657 249.352 21.8297 249.352 19.3437V8.71773H253.972V18.8157C253.972 20.2677 254.346 21.4007 255.094 22.2147C255.842 23.0067 256.854 23.4027 258.13 23.4027C259.472 23.4027 260.539 22.9737 261.331 22.1157C262.123 21.2577 262.519 20.0257 262.519 18.4197V8.71773H267.172Z" fill="white"/>
<path d="M276.056 12.2157C276.738 11.0497 277.64 10.1367 278.762 9.47673C279.884 8.79473 281.138 8.45373 282.524 8.45373V13.4367H281.171C277.761 13.4367 276.056 15.0207 276.056 18.1887V26.9997H271.403V8.71773H276.056V12.2157Z" fill="white"/>
<path d="M302.292 17.1657C302.292 17.6277 302.237 18.1557 302.127 18.7497H288.729C288.795 20.3777 289.235 21.5767 290.049 22.3467C290.863 23.1167 291.875 23.5017 293.085 23.5017C294.163 23.5017 295.054 23.2377 295.758 22.7097C296.484 22.1817 296.946 21.4667 297.144 20.5647H302.061C301.819 21.8407 301.302 22.9847 300.51 23.9967C299.718 25.0087 298.695 25.8007 297.441 26.3727C296.209 26.9447 294.834 27.2307 293.316 27.2307C291.534 27.2307 289.95 26.8567 288.564 26.1087C287.178 25.3387 286.1 24.2497 285.33 22.8417C284.56 21.4337 284.175 19.7727 284.175 17.8587C284.175 15.9447 284.56 14.2837 285.33 12.8757C286.1 11.4457 287.178 10.3567 288.564 9.60873C289.95 8.86073 291.534 8.48673 293.316 8.48673C295.12 8.48673 296.693 8.86073 298.035 9.60873C299.399 10.3567 300.444 11.3907 301.17 12.7107C301.918 14.0087 302.292 15.4937 302.292 17.1657ZM297.606 16.7037C297.672 15.2077 297.276 14.0747 296.418 13.3047C295.582 12.5347 294.548 12.1497 293.316 12.1497C292.062 12.1497 291.006 12.5347 290.148 13.3047C289.29 14.0747 288.817 15.2077 288.729 16.7037H297.606Z" fill="white"/>
<path d="M316.518 8.48673C318.058 8.48673 319.444 8.86073 320.676 9.60873C321.908 10.3567 322.865 11.4457 323.547 12.8757C324.251 14.2837 324.603 15.9447 324.603 17.8587C324.603 19.7727 324.251 21.4447 323.547 22.8747C322.865 24.2827 321.908 25.3607 320.676 26.1087C319.444 26.8567 318.058 27.2307 316.518 27.2307C314.978 27.2307 313.658 26.8677 312.558 26.1417C311.48 25.3937 310.71 24.4037 310.248 23.1717V26.9997H305.595V2.57973H310.248V12.5127C310.71 11.2807 311.48 10.3017 312.558 9.57574C313.658 8.84973 314.978 8.48673 316.518 8.48673ZM315.066 12.5457C313.658 12.5457 312.492 13.0297 311.568 13.9977C310.666 14.9437 310.215 16.2307 310.215 17.8587C310.215 19.4647 310.666 20.7517 311.568 21.7197C312.492 22.6657 313.658 23.1387 315.066 23.1387C316.518 23.1387 317.684 22.6767 318.564 21.7527C319.444 20.8067 319.884 19.5087 319.884 17.8587C319.884 16.2087 319.444 14.9107 318.564 13.9647C317.684 13.0187 316.518 12.5457 315.066 12.5457Z" fill="white"/>
<path d="M345.386 8.71773V26.9997H340.733V23.3037C340.249 24.5357 339.446 25.5037 338.324 26.2077C337.224 26.8897 335.948 27.2307 334.496 27.2307C332.384 27.2307 330.701 26.5377 329.447 25.1517C328.193 23.7657 327.566 21.8297 327.566 19.3437V8.71773H332.186V18.8157C332.186 20.2677 332.56 21.4007 333.308 22.2147C334.056 23.0067 335.068 23.4027 336.344 23.4027C337.686 23.4027 338.753 22.9737 339.545 22.1157C340.337 21.2577 340.733 20.0257 340.733 18.4197V8.71773H345.386Z" fill="white"/>
<path d="M356.778 8.48673C358.318 8.48673 359.627 8.84973 360.705 9.57574C361.805 10.3017 362.597 11.2807 363.081 12.5127V2.57973H367.701V26.9997H363.081V23.1717C362.597 24.4037 361.805 25.3937 360.705 26.1417C359.627 26.8677 358.318 27.2307 356.778 27.2307C355.238 27.2307 353.852 26.8567 352.62 26.1087C351.388 25.3607 350.42 24.2827 349.716 22.8747C349.034 21.4447 348.693 19.7727 348.693 17.8587C348.693 15.9447 349.034 14.2837 349.716 12.8757C350.42 11.4457 351.388 10.3567 352.62 9.60873C353.852 8.86073 355.238 8.48673 356.778 8.48673ZM358.23 12.5457C356.778 12.5457 355.612 13.0187 354.732 13.9647C353.852 14.9107 353.412 16.2087 353.412 17.8587C353.412 19.5087 353.852 20.8067 354.732 21.7527C355.612 22.6767 356.778 23.1387 358.23 23.1387C359.638 23.1387 360.793 22.6657 361.695 21.7197C362.619 20.7517 363.081 19.4647 363.081 17.8587C363.081 16.2307 362.619 14.9437 361.695 13.9977C360.793 13.0297 359.638 12.5457 358.23 12.5457Z" fill="white"/>
<path d="M379.079 8.48673C380.619 8.48673 381.928 8.84973 383.006 9.57574C384.106 10.3017 384.898 11.2807 385.382 12.5127V2.57973H390.002V26.9997H385.382V23.1717C384.898 24.4037 384.106 25.3937 383.006 26.1417C381.928 26.8677 380.619 27.2307 379.079 27.2307C377.539 27.2307 376.153 26.8567 374.921 26.1087C373.689 25.3607 372.721 24.2827 372.017 22.8747C371.335 21.4447 370.994 19.7727 370.994 17.8587C370.994 15.9447 371.335 14.2837 372.017 12.8757C372.721 11.4457 373.689 10.3567 374.921 9.60873C376.153 8.86073 377.539 8.48673 379.079 8.48673ZM380.531 12.5457C379.079 12.5457 377.913 13.0187 377.033 13.9647C376.153 14.9107 375.713 16.2087 375.713 17.8587C375.713 19.5087 376.153 20.8067 377.033 21.7527C377.913 22.6767 379.079 23.1387 380.531 23.1387C381.939 23.1387 383.094 22.6657 383.996 21.7197C384.92 20.7517 385.382 19.4647 385.382 17.8587C385.382 16.2307 384.92 14.9437 383.996 13.9977C383.094 13.0297 381.939 12.5457 380.531 12.5457Z" fill="white"/>
<path d="M397.353 8.71773L402.336 21.1257L406.956 8.71773H412.071L400.884 35.7117H395.736L399.861 26.4717L392.172 8.71773H397.353Z" fill="white"/>
<path d="M418.124 22.1487V26.9997H413.108V22.1487H418.124Z" fill="white"/>
<path d="M432.114 8.45373C434.226 8.45373 435.909 9.14673 437.163 10.5327C438.417 11.9187 439.044 13.8657 439.044 16.3737V26.9997H434.424V16.9017C434.424 15.4497 434.05 14.3277 433.302 13.5357C432.554 12.7217 431.531 12.3147 430.233 12.3147C428.913 12.3147 427.857 12.7437 427.065 13.6017C426.273 14.4597 425.877 15.6917 425.877 17.2977V26.9997H421.224V8.71773H425.877V12.3807C426.361 11.1487 427.153 10.1917 428.253 9.50973C429.375 8.80573 430.662 8.45373 432.114 8.45373Z" fill="white"/>
<path d="M460.331 17.1657C460.331 17.6277 460.276 18.1557 460.166 18.7497H446.768C446.834 20.3777 447.274 21.5767 448.088 22.3467C448.902 23.1167 449.914 23.5017 451.124 23.5017C452.202 23.5017 453.093 23.2377 453.797 22.7097C454.523 22.1817 454.985 21.4667 455.183 20.5647H460.1C459.858 21.8407 459.341 22.9847 458.549 23.9967C457.757 25.0087 456.734 25.8007 455.48 26.3727C454.248 26.9447 452.873 27.2307 451.355 27.2307C449.573 27.2307 447.989 26.8567 446.603 26.1087C445.217 25.3387 444.139 24.2497 443.369 22.8417C442.599 21.4337 442.214 19.7727 442.214 17.8587C442.214 15.9447 442.599 14.2837 443.369 12.8757C444.139 11.4457 445.217 10.3567 446.603 9.60873C447.989 8.86073 449.573 8.48673 451.355 8.48673C453.159 8.48673 454.732 8.86073 456.074 9.60873C457.438 10.3567 458.483 11.3907 459.209 12.7107C459.957 14.0087 460.331 15.4937 460.331 17.1657ZM455.645 16.7037C455.711 15.2077 455.315 14.0747 454.457 13.3047C453.621 12.5347 452.587 12.1497 451.355 12.1497C450.101 12.1497 449.045 12.5347 448.187 13.3047C447.329 14.0747 446.856 15.2077 446.768 16.7037H455.645Z" fill="white"/>
<path d="M473.402 23.0067V26.9997H470.96C468.914 26.9997 467.341 26.5047 466.241 25.5147C465.163 24.5247 464.624 22.8747 464.624 20.5647V12.6447H462.083V8.71773H464.624V4.19673H469.277V8.71773H473.369V12.6447H469.277V20.6307C469.277 21.5107 469.453 22.1267 469.805 22.4787C470.157 22.8307 470.751 23.0067 471.587 23.0067H473.402Z" fill="white"/>
</svg>
