<svg width="210" height="210" viewBox="0 0 210 210" fill="none" xmlns="http://www.w3.org/2000/svg">
<rect width="210" height="210" fill="#F8F9FF"/>
<path d="M116.25 87.5H93.75C92.0924 87.5 90.5027 88.1585 89.3306 89.3306C88.1585 90.5027 87.5 92.0924 87.5 93.75V116.25C87.5 117.908 88.1585 119.497 89.3306 120.669C90.5027 121.842 92.0924 122.5 93.75 122.5H116.25C117.908 122.5 119.497 121.842 120.669 120.669C121.842 119.497 122.5 117.908 122.5 116.25V93.75C122.5 92.0924 121.842 90.5027 120.669 89.3306C119.497 88.1585 117.908 87.5 116.25 87.5V87.5ZM93.75 90H116.25C117.245 90 118.198 90.3951 118.902 91.0983C119.605 91.8016 120 92.7554 120 93.75V100.738L117.65 98.3875C116.947 97.6852 115.994 97.2908 115 97.2908C114.006 97.2908 113.053 97.6852 112.35 98.3875L102.413 108.387L98.6625 105.363C97.9925 104.814 97.1533 104.515 96.2875 104.515C95.4217 104.515 94.5825 104.814 93.9125 105.363L90 108.575V93.75C90 92.7554 90.3951 91.8016 91.0983 91.0983C91.8016 90.3951 92.7554 90 93.75 90V90ZM116.25 120H93.75C92.7554 120 91.8016 119.605 91.0983 118.902C90.3951 118.198 90 117.245 90 116.25V111.837L95.475 107.262C95.6987 107.079 95.9792 106.978 96.2688 106.978C96.5583 106.978 96.8388 107.079 97.0625 107.262L101.725 111.012C101.964 111.205 102.266 111.302 102.573 111.286C102.88 111.27 103.17 111.141 103.388 110.925L114.113 100.187C114.229 100.07 114.367 99.9773 114.519 99.9139C114.672 99.8504 114.835 99.8178 115 99.8178C115.165 99.8178 115.328 99.8504 115.481 99.9139C115.633 99.9773 115.771 100.07 115.887 100.187L120 104.262V116.25C120 117.245 119.605 118.198 118.902 118.902C118.198 119.605 117.245 120 116.25 120V120Z" fill="#D7DCE8"/>
<path d="M97.5 101.25C98.2417 101.25 98.9667 101.03 99.5834 100.618C100.2 100.206 100.681 99.6203 100.965 98.9351C101.248 98.2498 101.323 97.4958 101.178 96.7684C101.033 96.041 100.676 95.3728 100.152 94.8484C99.6272 94.3239 98.959 93.9668 98.2316 93.8221C97.5042 93.6774 96.7502 93.7516 96.0649 94.0355C95.3797 94.3193 94.794 94.7999 94.382 95.4166C93.9699 96.0333 93.75 96.7583 93.75 97.5C93.75 98.4946 94.1451 99.4484 94.8483 100.152C95.5516 100.855 96.5054 101.25 97.5 101.25ZM97.5 96.25C97.7472 96.25 97.9889 96.3233 98.1945 96.4607C98.4 96.598 98.5602 96.7932 98.6548 97.0216C98.7495 97.2501 98.7742 97.5014 98.726 97.7439C98.6778 97.9863 98.5587 98.2091 98.3839 98.3839C98.2091 98.5587 97.9863 98.6778 97.7439 98.726C97.5014 98.7742 97.2501 98.7495 97.0216 98.6549C96.7932 98.5602 96.598 98.4 96.4607 98.1945C96.3233 97.9889 96.25 97.7472 96.25 97.5C96.25 97.1685 96.3817 96.8505 96.6161 96.6161C96.8505 96.3817 97.1685 96.25 97.5 96.25V96.25Z" fill="#D7DCE8"/>
</svg>
